<svg xmlns="http://www.w3.org/2000/svg" xmlns:xlink="http://www.w3.org/1999/xlink" width="793" zoomAndPan="magnify" viewBox="0 0 595.5 842.249979" height="1122" preserveAspectRatio="xMidYMid meet" version="1.0"><defs><clipPath id="8098089bdd"><path d="M 0.015625 0 L 594.984375 0 L 594.984375 841.5 L 0.015625 841.5 Z M 0.015625 0 " clip-rule="nonzero"/></clipPath><clipPath id="ef941b055c"><path d="M 82.300781 257.050781 L 525.90625 257.050781 L 525.90625 353.640625 L 82.300781 353.640625 Z M 82.300781 257.050781 " clip-rule="nonzero"/></clipPath></defs><g clip-path="url(#8098089bdd)"><path fill="#ffffff" d="M 0.015625 0 L 594.984375 0 L 594.984375 841.5 L 0.015625 841.5 Z M 0.015625 0 " fill-opacity="1" fill-rule="nonzero"/><path fill="#ffffff" d="M 0.015625 0 L 594.984375 0 L 594.984375 841.5 L 0.015625 841.5 Z M 0.015625 0 " fill-opacity="1" fill-rule="nonzero"/></g><g clip-path="url(#ef941b055c)"><path fill="#e6e6e6" d="M 139.308594 353.640625 C 107.820312 353.640625 82.296875 328.101562 82.296875 296.601562 L 82.296875 237.597656 C 82.296875 206.09375 107.820312 180.558594 139.308594 180.558594 L 140.953125 180.746094 C 156.757812 182.574219 171.925781 187.851562 185.671875 195.867188 C 196.871094 202.394531 210.921875 206.277344 226.179688 206.277344 C 234.488281 206.277344 242.433594 205.128906 249.757812 203.023438 C 249.914062 202.980469 250.070312 202.933594 250.226562 202.890625 C 274.0625 196.144531 297.722656 214.15625 297.722656 238.941406 L 297.722656 253.746094 C 297.722656 253.746094 457.851562 253.746094 458.351562 253.746094 C 463.695312 253.746094 468.21875 253.941406 469.746094 249.101562 L 478.296875 249.558594 L 478.296875 247.296875 L 475.410156 247.296875 C 474.714844 247.296875 474.152344 246.734375 474.152344 246.035156 L 474.152344 244.765625 C 474.152344 242.925781 475.636719 241.4375 477.476562 241.4375 L 481.015625 241.4375 C 482.855469 241.4375 484.34375 242.925781 484.34375 244.765625 L 484.34375 246.035156 C 484.34375 246.734375 483.777344 247.296875 483.085938 247.296875 L 480.199219 247.296875 L 480.199219 249.660156 L 495.535156 250.484375 L 495.535156 249.023438 L 492.652344 249.023438 C 491.953125 249.023438 491.390625 248.457031 491.390625 247.761719 L 491.390625 246.492188 C 491.390625 244.652344 492.878906 243.160156 494.714844 243.160156 L 498.253906 243.160156 C 500.09375 243.160156 501.582031 244.652344 501.582031 246.492188 L 501.582031 247.761719 C 501.582031 248.457031 501.019531 249.023438 500.324219 249.023438 L 497.4375 249.023438 L 497.4375 250.585938 L 512.773438 251.410156 L 512.773438 250.378906 L 509.890625 250.378906 C 509.195312 250.378906 508.628906 249.8125 508.628906 249.117188 L 508.628906 247.84375 C 508.628906 246.007812 510.121094 244.515625 511.957031 244.515625 L 515.496094 244.515625 C 517.335938 244.515625 518.824219 246.007812 518.824219 247.84375 L 518.824219 249.117188 C 518.824219 249.8125 518.257812 250.378906 517.5625 250.378906 L 514.675781 250.378906 L 514.675781 251.511719 L 520.890625 251.84375 C 523.703125 251.996094 525.90625 254.320312 525.90625 257.136719 L 525.90625 277.058594 C 525.90625 279.875 523.703125 282.203125 520.890625 282.355469 L 514.675781 282.6875 L 514.675781 283.820312 L 517.5625 283.820312 C 518.257812 283.820312 518.824219 284.382812 518.824219 285.082031 L 518.824219 286.351562 C 518.824219 288.191406 517.335938 289.679688 515.496094 289.679688 L 511.957031 289.679688 C 510.121094 289.679688 508.628906 288.191406 508.628906 286.351562 L 508.628906 285.082031 C 508.628906 284.382812 509.195312 283.820312 509.890625 283.820312 L 512.773438 283.820312 L 512.773438 282.789062 L 497.4375 283.613281 L 497.4375 285.171875 L 500.324219 285.171875 C 501.019531 285.171875 501.582031 285.738281 501.582031 286.4375 L 501.582031 287.707031 C 501.582031 289.542969 500.09375 291.035156 498.253906 291.035156 L 494.714844 291.035156 C 492.878906 291.035156 491.390625 289.542969 491.390625 287.707031 L 491.390625 286.4375 C 491.390625 285.738281 491.953125 285.171875 492.652344 285.171875 L 495.535156 285.171875 L 495.535156 283.714844 L 480.199219 284.535156 L 480.199219 286.898438 L 483.085938 286.898438 C 483.777344 286.898438 484.34375 287.464844 484.34375 288.160156 L 484.34375 289.429688 C 484.34375 291.269531 482.855469 292.761719 481.015625 292.761719 L 477.476562 292.761719 C 475.636719 292.761719 474.152344 291.269531 474.152344 289.429688 L 474.152344 288.160156 C 474.152344 287.464844 474.714844 286.898438 475.410156 286.898438 L 478.296875 286.898438 L 478.296875 284.636719 L 469.746094 285.097656 C 468.21875 280.257812 463.695312 280.449219 458.351562 280.449219 C 457.851562 280.449219 297.722656 280.449219 297.722656 280.449219 L 297.722656 295.257812 C 297.722656 320.039062 274.0625 338.054688 250.226562 331.304688 C 250.070312 331.261719 249.914062 331.21875 249.757812 331.171875 C 242.433594 329.070312 234.488281 327.917969 226.179688 327.917969 C 210.921875 327.917969 196.871094 331.804688 185.671875 338.332031 C 171.925781 346.347656 156.757812 351.625 140.953125 353.449219 L 139.308594 353.640625 " fill-opacity="1" fill-rule="nonzero"/></g></svg>