<svg xmlns="http://www.w3.org/2000/svg" xmlns:xlink="http://www.w3.org/1999/xlink" width="793" zoomAndPan="magnify" viewBox="0 0 595.5 842.249979" height="1122" preserveAspectRatio="xMidYMid meet" version="1.0"><defs><clipPath id="57d2d12015"><path d="M 0.015625 0 L 594.984375 0 L 594.984375 841.5 L 0.015625 841.5 Z M 0.015625 0 " clip-rule="nonzero"/></clipPath><clipPath id="60a7b0e275"><path d="M 7.585938 224.921875 L 594.753906 224.921875 L 594.753906 352.308594 L 7.585938 352.308594 Z M 7.585938 224.921875 " clip-rule="nonzero"/></clipPath></defs><g clip-path="url(#57d2d12015)"><path fill="#ffffff" d="M 0.015625 0 L 594.984375 0 L 594.984375 841.5 L 0.015625 841.5 Z M 0.015625 0 " fill-opacity="1" fill-rule="nonzero"/><path fill="#ffffff" d="M 0.015625 0 L 594.984375 0 L 594.984375 841.5 L 0.015625 841.5 Z M 0.015625 0 " fill-opacity="1" fill-rule="nonzero"/></g><g clip-path="url(#60a7b0e275)"><path fill="#ffffff" d="M 83.046875 352.605469 C 41.371094 352.605469 7.585938 318.820312 7.585938 277.144531 L 7.585938 199.085938 C 7.585938 157.410156 41.371094 123.625 83.046875 123.625 L 85.222656 123.878906 C 106.144531 126.292969 126.222656 133.273438 144.417969 143.878906 C 159.234375 152.515625 177.835938 157.65625 198.035156 157.65625 C 209.027344 157.65625 219.546875 156.132812 229.238281 153.351562 C 229.449219 153.289062 229.65625 153.230469 229.859375 153.175781 C 261.410156 144.246094 292.726562 168.078125 292.726562 200.867188 L 292.726562 220.453125 C 292.726562 220.453125 504.671875 220.453125 505.335938 220.453125 C 512.410156 220.453125 518.398438 220.707031 520.417969 214.304688 L 531.738281 214.910156 L 531.738281 211.921875 L 527.917969 211.921875 C 526.996094 211.921875 526.25 211.175781 526.25 210.25 L 526.25 208.570312 C 526.25 206.136719 528.21875 204.167969 530.652344 204.167969 L 535.335938 204.167969 C 537.769531 204.167969 539.742188 206.136719 539.742188 208.570312 L 539.742188 210.25 C 539.742188 211.175781 538.992188 211.921875 538.074219 211.921875 L 534.253906 211.921875 L 534.253906 215.046875 L 554.554688 216.136719 L 554.554688 214.203125 L 550.734375 214.203125 C 549.8125 214.203125 549.066406 213.457031 549.066406 212.535156 L 549.066406 210.851562 C 549.066406 208.421875 551.035156 206.449219 553.46875 206.449219 L 558.152344 206.449219 C 560.589844 206.449219 562.558594 208.421875 562.558594 210.851562 L 562.558594 212.535156 C 562.558594 213.457031 561.8125 214.203125 560.890625 214.203125 L 557.070312 214.203125 L 557.070312 216.269531 L 577.371094 217.359375 L 577.371094 215.996094 L 573.554688 215.996094 C 572.632812 215.996094 571.882812 215.25 571.882812 214.324219 L 571.882812 212.644531 C 571.882812 210.210938 573.855469 208.242188 576.289062 208.242188 L 580.972656 208.242188 C 583.40625 208.242188 585.378906 210.210938 585.378906 212.644531 L 585.378906 214.324219 C 585.378906 215.25 584.632812 215.996094 583.707031 215.996094 L 579.890625 215.996094 L 579.890625 217.492188 L 588.113281 217.933594 C 591.835938 218.136719 594.753906 221.210938 594.753906 224.941406 L 594.753906 251.292969 C 594.753906 255.019531 591.835938 258.097656 588.113281 258.296875 L 579.890625 258.738281 L 579.890625 260.234375 L 583.707031 260.234375 C 584.632812 260.234375 585.378906 260.984375 585.378906 261.90625 L 585.378906 263.585938 C 585.378906 266.019531 583.40625 267.992188 580.972656 267.992188 L 576.289062 267.992188 C 573.855469 267.992188 571.882812 266.019531 571.882812 263.585938 L 571.882812 261.90625 C 571.882812 260.984375 572.632812 260.234375 573.554688 260.234375 L 577.371094 260.234375 L 577.371094 258.875 L 557.070312 259.960938 L 557.070312 262.027344 L 560.890625 262.027344 C 561.8125 262.027344 562.558594 262.777344 562.558594 263.699219 L 562.558594 265.378906 C 562.558594 267.8125 560.589844 269.785156 558.152344 269.785156 L 553.46875 269.785156 C 551.035156 269.785156 549.066406 267.8125 549.066406 265.378906 L 549.066406 263.699219 C 549.066406 262.777344 549.8125 262.027344 550.734375 262.027344 L 554.554688 262.027344 L 554.554688 260.097656 L 534.253906 261.183594 L 534.253906 264.308594 L 538.074219 264.308594 C 538.992188 264.308594 539.742188 265.058594 539.742188 265.980469 L 539.742188 267.660156 C 539.742188 270.09375 537.769531 272.066406 535.335938 272.066406 L 530.652344 272.066406 C 528.21875 272.066406 526.25 270.09375 526.25 267.660156 L 526.25 265.980469 C 526.25 265.058594 526.996094 264.308594 527.917969 264.308594 L 531.738281 264.308594 L 531.738281 261.320312 L 520.417969 261.925781 C 518.398438 255.523438 512.410156 255.78125 505.335938 255.78125 C 504.671875 255.78125 292.726562 255.78125 292.726562 255.78125 L 292.726562 275.367188 C 292.726562 308.15625 261.410156 331.984375 229.859375 323.058594 C 229.65625 323 229.449219 322.941406 229.238281 322.882812 C 219.546875 320.101562 209.027344 318.578125 198.035156 318.578125 C 177.835938 318.578125 159.234375 323.71875 144.417969 332.355469 C 126.222656 342.957031 106.144531 349.9375 85.222656 352.355469 L 83.046875 352.605469 " fill-opacity="1" fill-rule="nonzero"/></g></svg>