<svg width="27" height="26" viewBox="0 0 27 26" fill="none" xmlns="http://www.w3.org/2000/svg">
<path d="M20.6598 25.5637C20.3423 25.5637 20.0264 25.4662 19.7545 25.2721L13.3609 20.687L6.96744 25.2721C6.70255 25.4627 6.38421 25.5647 6.05789 25.5636C5.73157 25.5624 5.41395 25.4582 5.15038 25.2658C4.88657 25.0745 4.68979 24.8049 4.58806 24.4953C4.48632 24.1858 4.48481 23.852 4.58373 23.5415L6.96823 15.8457L0.632094 11.3809C0.369501 11.1871 0.174485 10.9156 0.074629 10.6049C-0.0252266 10.2942 -0.0248667 9.95997 0.075658 9.64947C0.176976 9.33973 0.373073 9.06967 0.636235 8.87744C0.899397 8.68522 1.21631 8.58056 1.5422 8.57826L9.38967 8.56647L11.8881 1.06166C11.9912 0.752496 12.189 0.483606 12.4534 0.293068C12.7178 0.102529 13.0354 0 13.3613 0C13.6872 0 14.0049 0.102529 14.2693 0.293068C14.5337 0.483606 14.7315 0.752496 14.8346 1.06166L17.2906 8.56647L25.1781 8.57826C25.5044 8.5801 25.8218 8.6847 26.0852 8.87722C26.3486 9.06973 26.5447 9.34035 26.6456 9.65065C26.7464 9.96095 26.7469 10.2951 26.647 10.6057C26.5471 10.9163 26.3519 11.1876 26.089 11.3809L19.7529 15.8457L22.1374 23.5415C22.2365 23.8519 22.2352 24.1857 22.1336 24.4953C22.032 24.8049 21.8353 25.0745 21.5715 25.2658C21.3071 25.4597 20.9877 25.5641 20.6598 25.5637Z" fill="#FFAC33"/>
</svg>
