<svg xmlns="http://www.w3.org/2000/svg" xmlns:xlink="http://www.w3.org/1999/xlink" width="793" zoomAndPan="magnify" viewBox="0 0 595.5 842.249979" height="1122" preserveAspectRatio="xMidYMid meet" version="1.0"><defs><clipPath id="97f7901c4f"><path d="M 0.015625 0 L 594.984375 0 L 594.984375 841.5 L 0.015625 841.5 Z M 0.015625 0 " clip-rule="nonzero"/></clipPath><clipPath id="696d314f1e"><path d="M 3.796875 0 L 590.964844 0 L 590.964844 127.386719 L 3.796875 127.386719 Z M 3.796875 0 " clip-rule="nonzero"/></clipPath></defs><g clip-path="url(#97f7901c4f)"><path fill="#ffffff" d="M 0.015625 0 L 594.984375 0 L 594.984375 841.5 L 0.015625 841.5 Z M 0.015625 0 " fill-opacity="1" fill-rule="nonzero"/><path fill="#ffffff" d="M 0.015625 0 L 594.984375 0 L 594.984375 841.5 L 0.015625 841.5 Z M 0.015625 0 " fill-opacity="1" fill-rule="nonzero"/></g><g clip-path="url(#696d314f1e)"><path fill="#bdd4df" d="M 79.261719 127.683594 C 37.582031 127.683594 3.796875 93.898438 3.796875 52.222656 L 3.796875 -25.835938 C 3.796875 -67.511719 37.582031 -101.296875 79.261719 -101.296875 L 81.433594 -101.046875 C 102.355469 -98.628906 122.433594 -91.648438 140.628906 -81.042969 C 155.449219 -72.410156 174.046875 -67.269531 194.246094 -67.269531 C 205.238281 -67.269531 215.757812 -68.792969 225.453125 -71.574219 C 225.660156 -71.632812 225.867188 -71.691406 226.070312 -71.75 C 257.621094 -80.675781 288.9375 -56.847656 288.9375 -24.058594 L 288.9375 -4.472656 C 288.9375 -4.472656 500.886719 -4.472656 501.550781 -4.472656 C 508.621094 -4.472656 514.609375 -4.214844 516.628906 -10.617188 L 527.949219 -10.011719 L 527.949219 -13 L 524.128906 -13 C 523.207031 -13 522.460938 -13.75 522.460938 -14.671875 L 522.460938 -16.351562 C 522.460938 -18.785156 524.429688 -20.757812 526.863281 -20.757812 L 531.546875 -20.757812 C 533.980469 -20.757812 535.953125 -18.785156 535.953125 -16.351562 L 535.953125 -14.671875 C 535.953125 -13.75 535.203125 -13 534.285156 -13 L 530.464844 -13 L 530.464844 -9.878906 L 550.765625 -8.789062 L 550.765625 -10.71875 L 546.949219 -10.71875 C 546.023438 -10.71875 545.277344 -11.46875 545.277344 -12.390625 L 545.277344 -14.070312 C 545.277344 -16.503906 547.25 -18.476562 549.679688 -18.476562 L 554.367188 -18.476562 C 556.800781 -18.476562 558.773438 -16.503906 558.773438 -14.070312 L 558.773438 -12.390625 C 558.773438 -11.46875 558.027344 -10.71875 557.101562 -10.71875 L 553.285156 -10.71875 L 553.285156 -8.652344 L 573.582031 -7.5625 L 573.582031 -8.929688 L 569.765625 -8.929688 C 568.84375 -8.929688 568.097656 -9.675781 568.097656 -10.597656 L 568.097656 -12.277344 C 568.097656 -14.710938 570.070312 -16.683594 572.503906 -16.683594 L 577.1875 -16.683594 C 579.617188 -16.683594 581.589844 -14.710938 581.589844 -12.277344 L 581.589844 -10.597656 C 581.589844 -9.675781 580.84375 -8.929688 579.917969 -8.929688 L 576.101562 -8.929688 L 576.101562 -7.429688 L 584.324219 -6.988281 C 588.046875 -6.789062 590.964844 -3.710938 590.964844 0.015625 L 590.964844 26.367188 C 590.964844 30.097656 588.046875 33.175781 584.324219 33.375 L 576.101562 33.816406 L 576.101562 35.3125 L 579.917969 35.3125 C 580.84375 35.3125 581.589844 36.0625 581.589844 36.984375 L 581.589844 38.664062 C 581.589844 41.097656 579.617188 43.070312 577.1875 43.070312 L 572.503906 43.070312 C 570.070312 43.070312 568.097656 41.097656 568.097656 38.664062 L 568.097656 36.984375 C 568.097656 36.0625 568.84375 35.3125 569.765625 35.3125 L 573.582031 35.3125 L 573.582031 33.949219 L 553.285156 35.039062 L 553.285156 37.105469 L 557.101562 37.105469 C 558.027344 37.105469 558.773438 37.851562 558.773438 38.773438 L 558.773438 40.457031 C 558.773438 42.886719 556.800781 44.859375 554.367188 44.859375 L 549.679688 44.859375 C 547.25 44.859375 545.277344 42.886719 545.277344 40.457031 L 545.277344 38.773438 C 545.277344 37.851562 546.023438 37.105469 546.949219 37.105469 L 550.765625 37.105469 L 550.765625 35.171875 L 530.464844 36.261719 L 530.464844 39.386719 L 534.285156 39.386719 C 535.203125 39.386719 535.953125 40.132812 535.953125 41.054688 L 535.953125 42.738281 C 535.953125 45.171875 533.980469 47.140625 531.546875 47.140625 L 526.863281 47.140625 C 524.429688 47.140625 522.460938 45.171875 522.460938 42.738281 L 522.460938 41.054688 C 522.460938 40.132812 523.207031 39.386719 524.128906 39.386719 L 527.949219 39.386719 L 527.949219 36.398438 L 516.628906 37.003906 C 514.609375 30.601562 508.621094 30.855469 501.550781 30.855469 C 500.886719 30.855469 288.9375 30.855469 288.9375 30.855469 L 288.9375 50.445312 C 288.9375 83.230469 257.621094 107.0625 226.070312 98.136719 C 225.867188 98.078125 225.660156 98.019531 225.453125 97.960938 C 215.757812 95.175781 205.238281 93.652344 194.246094 93.652344 C 174.046875 93.652344 155.449219 98.792969 140.628906 107.429688 C 122.433594 118.035156 102.355469 125.015625 81.433594 127.433594 L 79.261719 127.683594 " fill-opacity="1" fill-rule="nonzero"/></g></svg>