<svg xmlns="http://www.w3.org/2000/svg" xmlns:xlink="http://www.w3.org/1999/xlink" width="450" zoomAndPan="magnify" viewBox="0 0 595.5 842.249979" height="1122" preserveAspectRatio="xMidYMid meet" version="1.0"><defs><clipPath id="6196d08cdf"><path d="M 268.636719 88.582031 L 388.53125 88.582031 L 388.53125 671.191406 L 268.636719 671.191406 Z M 268.636719 88.582031 " clip-rule="nonzero"/></clipPath></defs><g clip-path="url(#6196d08cdf)"><path fill="#25588b" d="M 495.839844 596.316406 C 495.839844 637.667969 462.320312 671.191406 420.964844 671.191406 L 343.511719 671.191406 C 302.160156 671.191406 268.636719 637.667969 268.636719 596.316406 L 268.886719 594.15625 C 271.285156 573.398438 278.210938 553.476562 288.734375 535.421875 C 297.304688 520.71875 302.402344 502.265625 302.402344 482.222656 C 302.402344 471.3125 300.890625 460.875 298.132812 451.257812 C 298.070312 451.050781 298.015625 450.84375 297.957031 450.640625 C 289.097656 419.335938 312.746094 388.265625 345.277344 388.265625 L 364.714844 388.265625 C 364.714844 388.265625 364.714844 177.960938 364.714844 177.300781 C 364.714844 170.285156 364.96875 164.34375 358.613281 162.339844 L 359.214844 151.105469 L 356.25 151.105469 L 356.25 154.898438 C 356.25 155.8125 355.507812 156.550781 354.589844 156.550781 L 352.925781 156.550781 C 350.511719 156.550781 348.554688 154.597656 348.554688 152.183594 L 348.554688 147.535156 C 348.554688 145.121094 350.511719 143.164062 352.925781 143.164062 L 354.589844 143.164062 C 355.507812 143.164062 356.25 143.90625 356.25 144.820312 L 356.25 148.609375 L 359.347656 148.609375 L 360.429688 128.46875 L 358.515625 128.46875 L 358.515625 132.257812 C 358.515625 133.171875 357.769531 133.914062 356.855469 133.914062 L 355.1875 133.914062 C 352.773438 133.914062 350.816406 131.957031 350.816406 129.542969 L 350.816406 124.894531 C 350.816406 122.476562 352.773438 120.523438 355.1875 120.523438 L 356.855469 120.523438 C 357.769531 120.523438 358.515625 121.265625 358.515625 122.179688 L 358.515625 125.96875 L 360.5625 125.96875 L 361.644531 105.828125 L 360.292969 105.828125 L 360.292969 109.617188 C 360.292969 110.527344 359.550781 111.273438 358.632812 111.273438 L 356.964844 111.273438 C 354.550781 111.273438 352.597656 109.3125 352.597656 106.898438 L 352.597656 102.25 C 352.597656 99.839844 354.550781 97.882812 356.964844 97.882812 L 358.632812 97.882812 C 359.550781 97.882812 360.292969 98.625 360.292969 99.539062 L 360.292969 103.328125 L 361.777344 103.328125 L 362.214844 95.167969 C 362.414062 91.472656 365.464844 88.582031 369.164062 88.582031 L 395.3125 88.582031 C 399.011719 88.582031 402.066406 91.472656 402.265625 95.167969 L 402.703125 103.328125 L 404.1875 103.328125 L 404.1875 99.539062 C 404.1875 98.625 404.929688 97.882812 405.84375 97.882812 L 407.511719 97.882812 C 409.925781 97.882812 411.882812 99.839844 411.882812 102.25 L 411.882812 106.898438 C 411.882812 109.3125 409.925781 111.273438 407.511719 111.273438 L 405.84375 111.273438 C 404.929688 111.273438 404.1875 110.527344 404.1875 109.617188 L 404.1875 105.828125 L 402.835938 105.828125 L 403.917969 125.96875 L 405.964844 125.96875 L 405.964844 122.179688 C 405.964844 121.265625 406.707031 120.523438 407.625 120.523438 L 409.292969 120.523438 C 411.703125 120.523438 413.660156 122.476562 413.660156 124.894531 L 413.660156 129.542969 C 413.660156 131.957031 411.703125 133.914062 409.292969 133.914062 L 407.625 133.914062 C 406.707031 133.914062 405.964844 133.171875 405.964844 132.257812 L 405.964844 128.46875 L 404.050781 128.46875 L 405.128906 148.609375 L 408.230469 148.609375 L 408.230469 144.820312 C 408.230469 143.90625 408.972656 143.164062 409.886719 143.164062 L 411.554688 143.164062 C 413.96875 143.164062 415.925781 145.121094 415.925781 147.535156 L 415.925781 152.183594 C 415.925781 154.597656 413.96875 156.550781 411.554688 156.550781 L 409.886719 156.550781 C 408.972656 156.550781 408.230469 155.8125 408.230469 154.898438 L 408.230469 151.105469 L 405.265625 151.105469 L 405.867188 162.339844 C 399.511719 164.34375 399.765625 170.285156 399.765625 177.300781 C 399.765625 177.960938 399.765625 388.265625 399.765625 388.265625 L 419.203125 388.265625 C 451.734375 388.265625 475.378906 419.335938 466.523438 450.640625 C 466.464844 450.84375 466.40625 451.050781 466.347656 451.257812 C 463.589844 460.875 462.078125 471.3125 462.078125 482.222656 C 462.078125 502.265625 467.175781 520.71875 475.746094 535.421875 C 486.269531 553.476562 493.195312 573.398438 495.59375 594.15625 L 495.839844 596.316406 " fill-opacity="1" fill-rule="nonzero"/></g></svg>